<svg width="16" height="16" viewBox="0 0 16 16" fill="none" xmlns="http://www.w3.org/2000/svg">
<path d="M5.93481 3.39563C6.58829 3.12216 7.2877 2.97581 7.99574 2.9644C11.1271 2.9644 13.7983 6.05325 14.7988 7.38707C14.924 7.55883 14.9915 7.76604 14.9915 7.97877C14.9915 8.19149 14.924 8.39871 14.7988 8.57046C14.2773 9.27258 13.6947 9.927 13.058 10.5261L11.9975 9.44296C12.4709 8.98597 12.9121 8.49674 13.3181 7.97877C12.4377 6.86558 10.2568 4.46871 7.99574 4.46871C7.70152 4.46929 7.40874 4.50977 7.12535 4.58905L5.93481 3.39563ZM8.86613 11.4186C8.58045 11.481 8.2877 11.5046 7.99574 11.4888C5.73472 11.4888 3.55374 9.09196 2.67335 7.97877C3.07938 7.4608 3.52063 6.97156 3.99394 6.51457L2.93347 5.43147C2.29444 6.04643 1.71184 6.71771 1.19268 7.43722C1.06748 7.60897 1 7.81619 1 8.02891C1 8.24164 1.06748 8.44885 1.19268 8.62061C2.19313 9.90429 4.86433 12.9931 7.99574 12.9931C8.70378 12.9817 9.40319 12.8354 10.0567 12.5619L8.86613 11.4186ZM14.7688 14.8184C14.842 14.7465 14.9001 14.6606 14.9398 14.5659C14.9795 14.4712 15 14.3695 15 14.2668C15 14.1641 14.9795 14.0624 14.9398 13.9676C14.9001 13.8729 14.842 13.7871 14.7688 13.7152L2.32319 1.18931C2.17397 1.06059 1.98173 0.993167 1.78501 1.00055C1.58828 1.00793 1.40161 1.08957 1.2624 1.22911C1.1232 1.36865 1.04175 1.55578 1.03439 1.75298C1.02703 1.95019 1.09429 2.14289 1.2227 2.29247L13.6683 14.7682C13.74 14.8416 13.8256 14.8999 13.9201 14.9397C14.0146 14.9795 14.116 15 14.2185 15C14.321 15 14.4225 14.9795 14.517 14.9397C14.6114 14.8999 14.6971 14.8416 14.7688 14.7682V14.8184Z" fill="black"/>
</svg>
